<svg xmlns="http://www.w3.org/2000/svg" width="31" height="32">
  <g fill="none">
    <g fill="#ffffff">
        <path d="M30.309570899999983 8.834251539999997C27.681077200000004 3.59554043 22.260430299999996-4.973799150320701e-14 16-4.973799150320701e-14 7.163444000000027-4.973799150320701e-14 0 7.163443999999998 0 16 0 24.836556 7.163444000000027 32 16 32 20.003408700000023 32 23.66340279999997 30.529667099999998 26.469430999999986 28.099552599999996L25.11441960000002 26.6270583C22.665253600000028 28.729562399999992 19.480990099999985 30 16 30 8.268013499999995 30 2 23.731986500000005 2 16 2 8.268013500000002 8.268013499999995 2 16 2 21.469089699999984 2 26.205724299999986 5.1360128900000035 28.509788000000015 9.707922760000002L30.309570899999983 8.834251539999997Z"/>
        <ellipse cx="16" cy="16" rx="7" ry="7"/>
    </g>
  </g>
</svg>