<svg width="18px" height="18px" version="1.1" xmlns="http://www.w3.org/2000/svg" xmlns:xlink="http://www.w3.org/1999/xlink">
    <g stroke="none" stroke-width="1" fill="none" fill-rule="evenodd">
        <g transform="translate(-425.000000, -71.000000)" fill="#C6002A">
            <g transform="translate(425.000000, 71.000000)">
                <g transform="translate(4.000000, 4.000000)">
                    <polygon points="3.92008197 7.24180328 10.8668033 0.295081967 11.7889344 1.21721311 3.92008197 9.08606557 0.262295082 5.42827869 1.18442623 4.50614754"></polygon>
                </g>
                <path d="M12.0126695,0.516605874 C11.0707547,0.182091292 10.0566422,0 9,0 C4.02943725,0 0,4.02943725 0,9 C0,13.9705627 4.02943725,18 9,18 C13.8640148,18 17.8268192,14.1414596 17.9944759,9.31831607 L16.9965842,9.2360511 C16.8717198,13.5451473 13.3393219,17 9,17 C4.581722,17 1,13.418278 1,9 C1,4.581722 4.581722,1 9,1 C9.94717412,1 10.8559025,1.16460592 11.6991393,1.46677201 L12.0126695,0.516605874 Z"></path>
            </g>
        </g>
    </g>
</svg>