<svg xmlns="http://www.w3.org/2000/svg" width="24" height="24" class="social-round youtube">
  <g class="a">
    <g class="b">
      <path d="M15.190831000000003 11.639891000000006L10.19482800000003 9.291554999999988C9.992087999999967 9.175589000000002 9.811072999999965 9.16833600000001 9.65178000000003 9.269812000000002 9.492485999999985 9.371283000000005 9.412838999999963 9.552481 9.412838999999963 9.813407000000012L9.412838999999963 14.205669999999998C9.412838999999963 14.437601 9.492485999999985 14.604304000000013 9.65178000000003 14.705773999999991 9.811072999999965 14.80725000000001 9.992087999999967 14.79999699999999 10.19482800000003 14.684032000000002L15.190831000000003 12.379179999999991C15.422532000000047 12.263215000000002 15.538378999999964 12.132754000000006 15.538378999999964 11.98779300000001 15.538378999999964 11.842831999999987 15.422532000000047 11.726866999999999 15.190831000000003 11.639891000000006ZM12 0C10.341453999999999 0 8.784558999999945 0.31332499999999186 7.329267999999956 0.9399819999999863 5.8739759999999706 1.5666390000000092 4.605695999999966 2.421154999999999 3.524389000000042 3.5035609999999906 2.443083999999999 4.585968000000008 1.5853690000000142 5.855537999999996 0.9512200000000348 7.3123099999999965 0.31706999999994423 8.769081 0 10.327560000000005 0 11.98779300000001 0 13.648025999999987 0.31706999999994423 15.206504999999993 0.9512200000000348 16.663276999999994 1.5853690000000142 18.120048999999995 2.443083999999999 19.38961900000001 3.524389000000042 20.472025000000002 4.605695999999966 21.554430999999994 5.8739759999999706 22.413017999999994 7.329267999999956 23.04781299999999 8.784558999999945 23.68260699999999 10.341453999999999 24 12 24 13.658546000000001 24 15.215441000000055 23.68260699999999 16.670732000000044 23.04781299999999 18.12602400000003 22.413017999999994 19.394304000000034 21.554430999999994 20.475610999999958 20.472025000000002 21.556917 19.38961900000001 22.41462899999999 18.120048999999995 23.048778999999968 16.663276999999994 23.68293200000005 15.206504999999993 24 13.648025999999987 24 11.98779300000001 24 10.327560000000005 23.68293200000005 8.769081 23.048778999999968 7.3123099999999965 22.41462899999999 5.855537999999996 21.556917 4.585968000000008 20.475610999999958 3.5035609999999906 19.394304000000034 2.421154999999999 18.12602400000003 1.5666390000000092 16.670732000000044 0.9399819999999863 15.215441000000055 0.31332499999999186 13.658546000000001 0 12 0ZM12 16.870803999999993C8.926814000000036 16.870803999999993 7.1178899999999885 16.598171000000008 6.573172 16.052898999999996 6.028453000000013 15.507627000000014 5.756097999999952 14.152605999999992 5.756097999999952 11.98779300000001 5.756097999999952 9.822980000000001 6.028453000000013 8.472028999999992 6.573172 7.934894000000014 7.1178899999999885 7.397760000000005 8.926814000000036 7.129196000000007 12 7.129196000000007 15.073185999999964 7.129196000000007 16.88211000000001 7.397760000000005 17.426828 7.934894000000014 17.971546999999987 8.472028999999992 18.24390200000005 9.822980000000001 18.24390200000005 11.98779300000001 18.24390200000005 14.152605999999992 17.971546999999987 15.507627000000014 17.426828 16.052898999999996 16.88211000000001 16.598171000000008 15.073185999999964 16.870803999999993 12 16.870803999999993Z"/>
    </g>
  </g>
</svg>