<svg xmlns="http://www.w3.org/2000/svg" width="26" height="22" viewBox="0 0 26 22" class="social twitter">
  <g class="a">
    <g class="b">
      <path d="M25.190660999999977 0.6048559999999839C24.145262000000002 1.210628999999983 23.015571000000023 1.6312980000000152 21.801556000000005 1.8668759999999907 20.756156999999973 0.7562919999999735 19.457854999999995 0.20100999999999658 17.906614999999988 0.20100999999999658 16.456542000000013 0.20100999999999658 15.208823999999993 0.7226400000000126 14.16342400000002 1.7659140000000093 13.118023999999991 2.809188000000006 12.595330999999987 4.054368000000011 12.595330999999987 5.501490999999987 12.595330999999987 5.905340000000024 12.645914000000005 6.309180000000026 12.747081999999978 6.713029000000006 10.588835000000017 6.612068000000022 8.55707799999999 6.0736120000000255 6.651748999999995 5.097645 4.74642399999999 4.121677999999974 3.1361929999999916 2.8091909999999984 1.821011999999996 1.160145 1.3151730000000157 1.9678400000000238 1.0622569999999882 2.859659000000022 1.0622569999999882 3.8356259999999907 1.0622569999999882 5.720250000000021 1.8547260000000279 7.184178999999972 3.439688999999987 8.227452000000028 2.5966230000000223 8.227452000000028 1.8041539999999827 8.008704000000023 1.0622569999999882 7.571202000000028L1.0622569999999882 7.672164000000009C1.0622569999999882 8.91736400000002 1.4584909999999809 10.027927999999974 2.2509729999999877 11.003895 3.043453999999997 11.979862000000026 4.063545999999974 12.602449999999976 5.311284000000001 12.871683000000019 4.839167999999972 12.972645 4.367057999999986 13.02312599999999 3.8949420000000146 13.02312599999999 3.5577160000000276 13.02312599999999 3.2204939999999738 12.98947099999998 2.883267999999987 12.92216400000001 3.254216999999983 13.999092000000019 3.8865049999999997 14.882497999999998 4.780156999999974 15.572403000000008 5.673806000000013 16.26231100000001 6.693899999999985 16.607259999999997 7.84046699999999 16.607259999999997 5.918277999999987 18.121691 3.7263399999999933 18.878895 1.2645909999999958 18.878895 0.8599199999999882 18.878895 0.4383940000000166 18.862068000000022 0 18.82841400000001 2.495473000000004 20.41015299999998 5.210101000000009 21.201009999999997 8.143969000000027 21.201009999999997 10.504549999999995 21.201009999999997 12.662764999999979 20.746688000000006 14.618676999999991 19.838029000000006 16.574589000000003 18.929371000000003 18.167957 17.743086000000005 19.398830999999973 16.279134 20.62970899999999 14.815184999999985 21.582358 13.199815999999998 22.256808999999976 11.432979999999986 22.93126000000001 9.666146000000026 23.268482000000006 7.890922999999987 23.268482000000006 6.107259999999997L23.268482000000006 5.451009999999997C24.31388199999998 4.676965999999993 25.190657999999985 3.7514959999999746 25.898833000000025 2.674568000000022 24.92087700000002 3.1120690000000195 23.909213000000022 3.3981239999999957 22.863812999999993 3.5327409999999873 24.010379999999998 2.826007000000004 24.785988999999972 1.850055999999995 25.190660999999977 0.6048559999999839Z" />
    </g>
  </g>
</svg>