<svg xmlns="http://www.w3.org/2000/svg" width="24" height="24" class="social-round facebook">
  <g class="a">
    <g class="b">
      <path d="M12 0C10.341453999999999 0 8.784559000000002 0.31332499999999186 7.329268000000013 0.9399819999999863 5.873976000000027 1.5666390000000092 4.605696000000023 2.421154999999999 3.524388999999985 3.5035609999999906 2.443083999999999 4.585968000000008 1.5853690000000142 5.855537999999996 0.951219999999978 7.3123099999999965 0.3170700000000011 8.769081 0 10.327560000000005 0 11.98779300000001 0 13.648025999999987 0.3170700000000011 15.206504999999993 0.951219999999978 16.663276999999994 1.5853690000000142 18.120048999999995 2.443083999999999 19.38961900000001 3.524388999999985 20.472025000000002 4.605696000000023 21.554430999999994 5.873976000000027 22.413017999999994 7.329268000000013 23.04781299999999 8.784559000000002 23.68260699999999 10.341453999999999 24 12 24 13.658546000000001 24 15.215440999999998 23.68260699999999 16.670731999999987 23.04781299999999 18.126023999999973 22.413017999999994 19.394303999999977 21.554430999999994 20.475611000000015 20.472025000000002 21.556917 19.38961900000001 22.41462899999999 18.120048999999995 23.048779000000025 16.663276999999994 23.682931999999994 15.206504999999993 24 13.648025999999987 24 11.98779300000001 24 10.327560000000005 23.682931999999994 8.769081 23.048779000000025 7.3123099999999965 22.41462899999999 5.855537999999996 21.556917 4.585968000000008 20.475611000000015 3.5035609999999906 19.394303999999977 2.421154999999999 18.126023999999973 1.5666390000000092 16.670731999999987 0.9399819999999863 15.215440999999998 0.31332499999999186 13.658546000000001 0 12 0ZM14.829268000000013 8.276704999999993L13.048782000000017 8.276704999999993C12.934958999999992 8.276704999999993 12.829268000000013 8.341811000000007 12.731706999999972 8.472025000000002 12.634145999999987 8.602239999999995 12.585366000000022 8.756867999999997 12.585366000000022 8.935913L12.585366000000022 10.254323 14.829268000000013 10.254323 14.512197000000015 12.109867000000008 12.585366000000022 12.109867000000008 12.585366000000022 17.676499000000007 10.463413000000003 17.676499000000007 10.463413000000003 12.109867000000008 8.536585000000002 12.109867000000008 8.536585000000002 10.254323 10.463413000000003 10.254323 10.463413000000003 9.155646999999988C10.463413000000003 8.37436199999999 10.707315999999992 7.702954000000005 11.195124000000021 7.141405999999989 11.682928000000004 6.579855000000009 12.300809000000015 6.299086999999986 13.048782000000017 6.299086999999986L14.829268000000013 6.299086999999986 14.829268000000013 8.276704999999993Z"/>
    </g>
  </g>
</svg>