<svg xmlns="http://www.w3.org/2000/svg" width="23" height="24" viewBox="0 0 23 24" class="social whatsapp">
  <g class="a">
    <g class="b">
      <path d="M11.705356999999992 0.20100999999999658C14.819954999999993 0.20100999999999658 17.481015000000014 1.2876810000000205 19.68861799999999 3.461055999999985 21.896217000000007 5.634428000000014 23 8.278376999999978 23 11.392973999999981 23 14.507571999999982 21.896217000000007 17.151521000000002 19.68861799999999 19.324891999999977 17.481015000000014 21.498267999999996 14.819954999999993 22.58493900000002 11.705356999999992 22.58493900000002 9.822905999999989 22.58493900000002 8.008938 22.122889999999984 6.263393000000008 21.198778000000004L0 23.201009999999997 2.053571000000005 17.19431400000002C0.9583279999999945 15.380316999999991 0.4107140000000129 13.446555999999987 0.4107140000000129 11.392973999999981 0.4107140000000129 8.278376999999978 1.5144980000000032 5.634428000000014 3.722096999999991 3.461055999999985 5.929698999999999 1.2876810000000205 8.590759999999989 0.20100999999999658 11.705356999999992 0.20100999999999658ZM17.301339000000013 15.654134999999997C17.575151000000005 14.969608999999991 17.660714000000013 14.524671000000012 17.558035999999987 14.31931400000002 17.523808000000002 14.250861999999984 17.335566999999998 14.131072000000017 16.993303999999995 13.95993900000002 16.924851999999987 13.925710999999978 16.616816999999998 13.754582000000028 16.069196000000005 13.446546000000012 15.52157600000001 13.138509999999997 15.196428999999995 12.967379999999991 15.09375 12.933153000000004 14.819938000000008 12.830473999999981 14.59747200000001 12.88181400000002 14.426339000000013 13.087171000000012 14.357888000000003 13.155621999999994 14.195313999999996 13.335307999999998 13.938617999999991 13.626235000000008 13.681917999999996 13.917159000000026 13.51934399999999 14.096844999999973 13.450893000000008 14.165296000000012 13.313986999999997 14.33642900000001 13.108632999999998 14.353541000000007 12.834821000000005 14.216634999999997 11.944934999999987 13.771694000000025 11.191968000000003 13.25830400000001 10.575893000000008 12.676457000000028 9.891367000000002 12.026155000000017 9.377976999999987 11.358749999999986 9.035714000000013 10.674223999999981 8.933035999999987 10.468866999999989 8.984375 10.263509999999997 9.189731999999992 10.058153000000004L9.651785999999987 9.596098999999981C9.754464000000013 9.493421000000012 9.857143000000008 9.339403000000004 9.959821000000005 9.134046000000012 10.028273000000013 8.997140000000002 10.028273000000013 8.826009999999997 9.959821000000005 8.620653000000004 9.959821000000005 8.586426000000017 9.899925999999994 8.432411000000002 9.780132000000009 8.158598999999981 9.660342000000014 7.884788000000015 9.540550999999994 7.5767549999999915 9.420760999999999 7.234491999999989 9.300967000000014 6.892228999999986 9.20684399999999 6.635536000000002 9.138393000000008 6.464403000000004 9.001486999999997 6.087913000000015 8.779018000000008 5.899671000000012 8.470981999999992 5.899671000000012L7.957589000000013 5.899671000000012C7.68377799999999 5.899671000000012 7.427084000000008 6.019460999999978 7.1875 6.259046000000012 6.468747000000008 6.9777990000000045 6.092263000000003 7.7649940000000015 6.058035999999987 8.620653000000004 6.0238080000000025 9.613218000000018 6.38318000000001 10.605767000000014 7.136160999999987 11.598332000000028L7.290178999999995 11.80368900000002C7.392856999999992 11.974822000000017 7.512648000000013 12.16306400000002 7.649553999999995 12.368421000000012 7.786459000000008 12.573778000000004 7.957589000000013 12.813358999999991 8.162946000000005 13.087171000000012 8.368303999999995 13.360982999999976 8.60788500000001 13.634788000000015 8.881696000000005 13.908598999999981 9.155507999999998 14.182411000000002 9.437869000000006 14.456215999999984 9.728795999999988 14.730028000000004 10.019720000000007 15.003840000000025 10.361975999999999 15.26053300000001 10.755582000000004 15.500116999999989 11.149183999999991 15.739702000000023 11.534223999999995 15.945056000000022 11.910714000000013 16.11618900000002 13.142864000000003 16.62958500000002 14.015622000000008 16.92050499999999 14.529018000000008 16.988957000000028 15.042414000000008 17.05740800000001 15.31621899999999 17.040296000000012 15.350446000000005 16.93761699999999 15.658481999999992 16.90339 16.03496899999999 16.757930999999985 16.479910999999987 16.50123500000001 16.924851999999987 16.244534999999985 17.198660999999987 15.962171000000012 17.301339000000013 15.654134999999997Z" />
    </g>
  </g>
</svg>