<svg xmlns="http://www.w3.org/2000/svg" width="24" height="24" class="social-round instagram">
  <g class="a">
    <g class="b">
      <path d="M15.756098000000009 11.98779300000001C15.756098000000009 13.029506999999995 15.390248999999983 13.916577999999987 14.658534999999972 14.649033000000003 13.926825000000008 15.381490000000014 13.040656000000013 15.747712000000007 12 15.747712000000007 10.959343999999987 15.747712000000007 10.073174999999992 15.381490000000014 9.341465000000028 14.649033000000003 8.609751000000017 13.916577999999987 8.243901999999991 13.029506999999995 8.243901999999991 11.98779300000001 8.243901999999991 11.890132999999992 8.252031999999986 11.788404000000014 8.268294000000026 11.682605999999993 8.284553000000017 11.576805000000007 8.300812000000008 11.475078999999994 8.317071999999996 11.377418000000006L7.000001999999995 11.377418000000006 7.000001999999995 16.358090000000004C7.000001999999995 16.537130999999988 7.060975999999982 16.687690000000003 7.182926000000009 16.809766999999994 7.304879000000028 16.93184099999999 7.4552850000000035 16.99287799999999 7.6341449999999895 16.99287799999999L16.36585500000001 16.99287799999999C16.544714999999997 16.99287799999999 16.695120999999972 16.93184099999999 16.81707399999999 16.809766999999994 16.939024000000018 16.687690000000003 16.999998000000005 16.537130999999988 16.999998000000005 16.358090000000004L16.999998000000005 11.377418000000006 15.682928000000004 11.377418000000006C15.699187999999992 11.475078999999994 15.715446999999983 11.576805000000007 15.731705999999974 11.682605999999993 15.747968000000014 11.788404000000014 15.756098000000009 11.890132999999992 15.756098000000009 11.98779300000001ZM12 14.502544999999998C12.682929999999999 14.502544999999998 13.268289999999979 14.258395000000007 13.756098000000009 13.770091000000008 14.243905999999981 13.28179 14.48780499999998 12.687693999999993 14.48780499999998 11.98779300000001 14.48780499999998 11.304169000000002 14.243905999999981 10.718213999999989 13.756098000000009 10.229908999999992 13.268289999999979 9.741604999999993 12.682929999999999 9.497457999999995 12 9.497457999999995 11.317070000000001 9.497457999999995 10.731710000000021 9.741604999999993 10.243901999999991 10.229908999999992 9.756094000000019 10.718213999999989 9.51219500000002 11.304169000000002 9.51219500000002 11.98779300000001 9.51219500000002 12.687693999999993 9.756094000000019 13.28179 10.243901999999991 13.770091000000008 10.731710000000021 14.258395000000007 11.317070000000001 14.502544999999998 12 14.502544999999998ZM15.000001999999995 9.375381000000004L16.48780499999998 9.375381000000004C16.601628000000005 9.375381000000004 16.695120999999972 9.338761000000005 16.76829300000003 9.265513999999996 16.841462999999976 9.192270000000008 16.878048999999976 9.098679000000004 16.878048999999976 8.984739999999988L16.878048999999976 7.495422999999988C16.878048999999976 7.397762999999998 16.841462999999976 7.3123099999999965 16.76829300000003 7.239066000000008 16.695120999999972 7.165818999999999 16.601628000000005 7.129196000000007 16.48780499999998 7.129196000000007L15.000001999999995 7.129196000000007C14.90243700000002 7.129196000000007 14.813009000000022 7.165818999999999 14.731706999999972 7.239066000000008 14.650404999999978 7.3123099999999965 14.609758 7.397762999999998 14.609758 7.495422999999988L14.609758 8.984739999999988C14.62601699999999 9.098679000000004 14.670731999999987 9.192270000000008 14.743901999999991 9.265513999999996 14.817073999999991 9.338761000000005 14.90243700000002 9.375381000000004 15.000001999999995 9.375381000000004ZM12 0C10.341453999999999 0 8.784559000000002 0.31332499999999186 7.329268000000013 0.9399819999999863 5.873976000000027 1.5666390000000092 4.605696000000023 2.421154999999999 3.524388999999985 3.5035609999999906 2.443083999999999 4.585968000000008 1.5853690000000142 5.855537999999996 0.951219999999978 7.3123099999999965 0.3170700000000011 8.769081 0 10.327560000000005 0 11.98779300000001 0 13.648025999999987 0.3170700000000011 15.206504999999993 0.951219999999978 16.663276999999994 1.5853690000000142 18.120048999999995 2.443083999999999 19.38961900000001 3.524388999999985 20.472025000000002 4.605696000000023 21.554430999999994 5.873976000000027 22.413017999999994 7.329268000000013 23.04781299999999 8.784559000000002 23.68260699999999 10.341453999999999 24 12 24 13.658546000000001 24 15.215440999999998 23.68260699999999 16.670731999999987 23.04781299999999 18.126023999999973 22.413017999999994 19.394303999999977 21.554430999999994 20.475611000000015 20.472025000000002 21.556917 19.38961900000001 22.41462899999999 18.120048999999995 23.048779000000025 16.663276999999994 23.682931999999994 15.206504999999993 24 13.648025999999987 24 11.98779300000001 24 10.327560000000005 23.682931999999994 8.769081 23.048779000000025 7.3123099999999965 22.41462899999999 5.855537999999996 21.556917 4.585968000000008 20.475611000000015 3.5035609999999906 19.394303999999977 2.421154999999999 18.126023999999973 1.5666390000000092 16.670731999999987 0.9399819999999863 15.215440999999998 0.31332499999999186 13.658546000000001 0 12 0ZM18.24390199999999 16.84639100000001C18.24390199999999 17.237032 18.109758 17.566632 17.841463999999974 17.835199999999986 17.573170000000005 18.103767000000005 17.243903999999986 18.238046999999995 16.85365999999999 18.238046999999995L7.146340000000009 18.238046999999995C6.756096000000014 18.238046999999995 6.426829999999995 18.103767000000005 6.158536000000026 17.835199999999986 5.890242000000001 17.566632 5.756098000000009 17.237032 5.756098000000009 16.84639100000001L5.756098000000009 7.129196000000007C5.756098000000009 6.754830999999996 5.890242000000001 6.429302000000007 6.158536000000026 6.1525939999999935 6.426829999999995 5.875889000000001 6.756096000000014 5.737538999999998 7.146340000000009 5.737538999999998L16.85365999999999 5.737538999999998C17.243903999999986 5.737538999999998 17.573170000000005 5.875889000000001 17.841463999999974 6.1525939999999935 18.109758 6.429302000000007 18.24390199999999 6.754830999999996 18.24390199999999 7.129196000000007L18.24390199999999 16.84639100000001Z"/>
    </g>
  </g>
</svg>