<svg xmlns="http://www.w3.org/2000/svg" width="21" height="25" viewBox="0 0 21 25" class="social linkedin">
  <g class="a">
    <g class="b">
      <path d="M0.0498810000000276 24.201009999999997L4.7885989999999765 24.201009999999997 4.7885989999999765 6.601009999999974 0.0498810000000276 6.601009999999974 0.0498810000000276 24.201009999999997ZM14.515439000000015 6.601009999999974C14.282659000000024 6.601009999999974 14.058195000000012 6.617676000000017 13.842043999999987 6.651009999999985 13.625890000000027 6.6843450000000075 13.418051999999989 6.734345000000019 13.218526999999995 6.801010000000019 13.019002 6.867676000000017 12.852733 6.926009000000022 12.719715000000008 6.976012000000026 12.586697000000015 7.02601199999998 12.420428000000015 7.109343000000024 12.220903000000021 7.226008999999976 12.021378000000027 7.342676999999981 11.896676000000014 7.417675999999972 11.846794999999986 7.451009999999997 11.796911000000023 7.484345000000019 11.67220900000001 7.584340999999995 11.472684000000015 7.751010000000008 11.273159000000021 7.917679000000021 11.173397000000023 8.001010000000008 11.173397000000023 8.001010000000008L11.173397000000023 6.601009999999974 6.434679000000017 6.601009999999974 6.434679000000017 24.201009999999997 11.173397000000023 24.201009999999997 11.173397000000023 13.101009999999974 11.173397000000023 12.901009999999985C11.173397000000023 12.80101000000002 11.214965000000007 12.61767900000001 11.298097999999982 12.351009999999974 11.381235000000004 12.084340999999995 11.497622999999976 11.859343000000024 11.647269999999992 11.676012000000014 11.796914000000015 11.492677000000015 12.046316999999988 11.317678999999998 12.395485000000008 11.151009999999985 12.744657000000018 10.984340999999972 13.152017 10.901009999999985 13.617576999999983 10.901009999999985 14.415680000000009 10.901009999999985 15.00593600000002 11.101006999999981 15.38835899999998 11.501010000000008 15.770786999999984 11.901012999999978 15.961995000000002 12.434341000000018 15.961995000000002 13.101009999999974L15.961995000000002 24.201009999999997 21 24.201009999999997 21 13.30101000000002C21 12.134338000000014 20.817103999999972 11.126014999999995 20.451305999999988 10.27601199999998 20.085509000000002 9.426004999999975 19.66152299999999 8.77601199999998 19.179332999999986 8.326008999999999 18.697146999999973 7.8760090000000105 18.131834000000026 7.509345999999994 17.483370999999977 7.226008999999976 16.834911999999974 6.942674000000011 16.286225 6.7676759999999945 15.837293999999986 6.701009999999997 15.38835899999998 6.634344999999996 14.947744999999998 6.601009999999974 14.515439000000015 6.601009999999974ZM0 2.601009999999974C0 3.267678999999987 0.23277699999999868 3.834340999999995 0.6983369999999809 4.301010000000019 1.1638980000000174 4.767678999999987 1.7292130000000157 5.001010000000008 2.3942989999999895 5.001010000000008 3.0593860000000177 5.001010000000008 3.624701000000016 4.767678999999987 4.090260999999998 4.301010000000019 4.555821999999978 3.834340999999995 4.7885989999999765 3.267678999999987 4.7885989999999765 2.601009999999974 4.7885989999999765 1.9343410000000176 4.555821999999978 1.3676790000000096 4.090260999999998 0.9010099999999852 3.624701000000016 0.43434100000001763 3.0593860000000177 0.20100999999999658 2.3942989999999895 0.20100999999999658 1.7292130000000157 0.20100999999999658 1.1638980000000174 0.43434100000001763 0.6983369999999809 0.9010099999999852 0.23277699999999868 1.3676790000000096 0 1.9343410000000176 0 2.601009999999974Z" />
    </g>
  </g>
</svg>