<svg xmlns="http://www.w3.org/2000/svg" width="26" height="20" viewBox="0 0 26 20" class="social email">
  <g class="a">
    <g class="b">
      <path d="M22.75 0.20100999999999658L3.25 0.20100999999999658C2.352860000000021 0.20100999999999658 1.586917000000028 0.5102509999999825 0.9521490000000199 1.1287449999999808 0.3173800000000142 1.7472359999999867 0 2.4935409999999933 0 3.3676770000000147L0 16.03434299999998C0 16.908479999999997 0.3173800000000142 17.65478300000001 0.9521490000000199 18.27327600000001 1.586917000000028 18.891768000000013 2.352860000000021 19.201009999999997 3.25 19.201009999999997L22.75 19.201009999999997C23.64713999999998 19.201009999999997 24.413082999999972 18.891768000000013 25.04785099999998 18.27327600000001 25.682620999999983 17.65478300000001 26 16.908479999999997 26 16.03434299999998L26 3.3676770000000147C26 2.4935409999999933 25.682620999999983 1.7472359999999867 25.04785099999998 1.1287449999999808 24.413082999999972 0.5102509999999825 23.64713999999998 0.20100999999999658 22.75 0.20100999999999658ZM23.5625 1.7843429999999785L13 9.701009999999997 2.4375 1.7843429999999785 23.5625 1.7843429999999785ZM1.625 16.03434299999998L1.625 3.3676770000000147 8.9375 8.909342999999978 1.7011719999999855 16.479655999999977C1.6842449999999758 16.41368399999999 1.667318000000023 16.34358900000001 1.6503910000000133 16.26936999999998 1.633463000000006 16.195150000000012 1.625 16.11680899999999 1.625 16.03434299999998ZM2.894530999999972 17.568197999999995L10.232422999999983 9.973146999999983 13 12.001790000000028 15.666014000000018 9.948405999999977 23.105469000000028 17.568197999999995C23.07161400000001 17.58469100000002 22.00522000000001 17.592937000000006 19.90625 17.592937000000006L13 17.592937000000006 6.09375 17.592937000000006C3.9947799999999916 17.592937000000006 2.928385999999989 17.58469100000002 2.894530999999972 17.568197999999995ZM24.375 16.03434299999998C24.375 16.11680899999999 24.366536999999994 16.195150000000012 24.34961099999998 16.26936999999998 24.332681999999977 16.34358900000001 24.31575600000002 16.41368399999999 24.29882600000002 16.479655999999977L17.0625 8.909342999999978 24.375 3.3676770000000147 24.375 16.03434299999998Z" />
    </g>
  </g>
</svg>