<svg xmlns="http://www.w3.org/2000/svg" width="24" height="24" class="social-round twitter">
  <g class="a">
    <g class="b">
      <path d="M12 0C8.687483999999984 0 5.8593870000000265 1.1718630000000019 3.515625 3.515625 1.1718629999999735 5.859386999999998 0 8.687484000000012 0 12 0 15.312515999999988 1.1718629999999735 18.140613000000002 3.515625 20.484375 5.8593870000000265 22.828136999999998 8.687483999999984 24 12 24 15.312516000000016 24 18.140612999999973 22.828136999999998 20.484375 20.484375 22.828137000000027 18.140613000000002 24 15.312515999999988 24 12 24 8.687484000000012 22.828137000000027 5.859386999999998 20.484375 3.515625 18.140612999999973 1.1718630000000019 15.312516000000016 0 12 0ZM17.953125 9.328125C17.984375999999997 9.453125999999997 18 9.578124000000003 18 9.703125 18 11.828136 17.234381999999982 13.75780499999999 15.703125 15.492186000000004 14.171868000000018 17.22657000000001 12.125013000000024 18.09375 9.5625 18.09375 7.937493000000018 18.09375 6.43750799999998 17.65625399999999 5.0625 16.78125 5.2812509999999975 16.812500999999997 5.515623000000005 16.828125 5.765625 16.828125 7.109381999999982 16.828125 8.328120000000013 16.406252999999992 9.421875 15.5625 8.765622000000008 15.531249000000003 8.18750399999999 15.328127999999992 7.6875 14.953125 7.1874990000000025 14.578122000000008 6.84375 14.09375399999999 6.65625 13.5 6.84375 13.531250999999997 7.03125 13.546875 7.21875 13.546875 7.468751999999995 13.546875 7.734375 13.515624000000003 8.015625 13.453125 7.32812100000001 13.296873000000005 6.757814999999994 12.953126999999995 6.304686000000004 12.421875 5.851560000000006 11.890623000000005 5.625 11.265629999999987 5.625 10.546875L5.625 10.5C6.0312509999999975 10.750001999999995 6.4843740000000025 10.875 6.984375 10.875 6.078120000000013 10.28124600000001 5.625 9.468756000000013 5.625 8.4375 5.625 7.906248000000005 5.765625 7.406252999999992 6.046875 6.9375 7.60938299999998 8.875011 9.640610999999979 9.906249000000003 12.140625 10.03125 12.078125999999997 9.812499000000003 12.046875 9.578126999999995 12.046875 9.328125 12.046875 8.515620000000013 12.335934000000009 7.820315999999991 12.914063999999996 7.242186000000004 13.492190999999991 6.664059000000009 14.187495000000013 6.375 15 6.375 15.87500399999999 6.375 16.593747000000008 6.687498000000005 17.15625 7.3125 17.84375399999999 7.1874990000000025 18.468747000000008 6.953126999999995 19.03125 6.609375 18.812499000000003 7.328129999999987 18.390626999999995 7.874997000000008 17.765625 8.25 18.328127999999992 8.187500999999997 18.890622000000008 8.031251999999995 19.453125 7.78125 19.046874000000003 8.37500399999999 18.54687899999999 8.890623000000005 17.953125 9.328125Z"/>
    </g>
  </g>
</svg>