<svg xmlns="http://www.w3.org/2000/svg" width="24" height="24" class="social-round linkedin">
  <g class="a">
    <g class="b">
      <path d="M12.01220699999999 0C10.351974000000041 0 8.793495000000007 0.31332499999999186 7.336723000000006 0.9399819999999863 5.8799510000000055 1.5666390000000092 4.610380999999961 2.421154999999999 3.5279749999999694 3.5035609999999906 2.4455689999999777 4.585968000000008 1.5869820000000345 5.855537999999996 0.9521869999999808 7.3123099999999965 0.3173929999999814 8.769081 0 10.327560000000005 0 11.98779300000001 0 13.648025999999987 0.3173929999999814 15.206504999999993 0.9521869999999808 16.663276999999994 1.5869820000000345 18.120048999999995 2.4455689999999777 19.38961900000001 3.5279749999999694 20.472025000000002 4.610380999999961 21.554430999999994 5.8799510000000055 22.413017999999994 7.336723000000006 23.04781299999999 8.793495000000007 23.68260699999999 10.351974000000041 24 12.01220699999999 24 13.672440000000051 24 15.230918999999972 23.68260699999999 16.687689999999975 23.04781299999999 18.144461999999976 22.413017999999994 19.41403200000002 21.554430999999994 20.49643900000001 20.472025000000002 21.578845 19.38961900000001 22.43742999999995 18.120048999999995 23.072225000000003 16.663276999999994 23.70702200000005 15.206504999999993 24.02441299999998 13.648025999999987 24.02441299999998 11.98779300000001 24.02441299999998 10.327560000000005 23.70702200000005 8.769081 23.072225000000003 7.3123099999999965 22.43742999999995 5.855537999999996 21.578845 4.585968000000008 20.49643900000001 3.5035609999999906 19.41403200000002 2.421154999999999 18.144461999999976 1.5666390000000092 16.687689999999975 0.9399819999999863 15.230918999999972 0.31332499999999186 13.672440000000051 0 12.01220699999999 0ZM9.082400000000007 16.96846400000001L6.640895 16.96846400000001 6.640895 9.155646999999988 9.082400000000007 9.155646999999988 9.082400000000007 16.96846400000001ZM7.837230999999974 8.179045000000002C7.462865999999963 8.179045000000002 7.161749999999984 8.061039999999991 6.933874999999944 7.825027000000006 6.706001000000015 7.589014999999989 6.592065000000048 7.3001059999999995 6.592065000000048 6.958292 6.592065000000048 6.616478000000001 6.710068999999976 6.331641999999988 6.946082000000047 6.103767000000005 7.182095000000004 5.875889000000001 7.495419999999967 5.761953000000005 7.886064000000033 5.761953000000005 8.276704999999993 5.761953000000005 8.581889000000047 5.875889000000001 8.801626000000056 6.103767000000005 9.021362999999951 6.331641999999988 9.13936799999999 6.616478000000001 9.155647000000044 6.958292 9.155647000000044 7.3001059999999995 9.037639000000013 7.589014999999989 8.801626000000056 7.825027000000006 8.565613999999982 8.061039999999991 8.244150999999988 8.179045000000002 7.837230999999974 8.179045000000002ZM17.945066999999995 16.96846400000001L15.52797499999997 16.96846400000001 15.52797499999997 12.622584999999987C15.52797499999997 12.11800500000001 15.430313999999953 11.71109100000001 15.234994000000029 11.401832000000013 15.039672999999993 11.092572999999987 14.722278999999958 10.937943999999987 14.282805000000053 10.937943999999987 13.957269999999994 10.937943999999987 13.692777999999976 11.035605000000004 13.489317000000028 11.230925000000013 13.285857999999962 11.426249000000013 13.135299000000032 11.629704000000004 13.037639000000013 11.84130300000001 13.005085000000008 11.922686999999996 12.984739999999988 12.016276000000005 12.976601999999957 12.12207699999999 12.96846400000004 12.227875000000012 12.964394999999968 12.337741999999992 12.964394999999968 12.451681000000008L12.964394999999968 16.96846400000001 10.522889999999961 16.96846400000001 10.522889999999961 11.645982000000004C10.522889999999961 11.157678000000004 10.51881800000001 10.706004000000007 10.51067999999998 10.290945999999991 10.502541999999949 9.875889 10.490335999999957 9.497460999999987 10.474057000000016 9.155646999999988L12.573755000000006 9.155646999999988 12.695828000000006 10.229908999999992 12.744657999999959 10.229908999999992C12.907426999999984 9.969480000000004 13.184125999999992 9.692778000000004 13.574769999999944 9.399797000000007 13.96541400000001 9.106817000000007 14.494401000000039 8.960327000000007 15.161746999999991 8.960327000000007 15.959310999999957 8.960327000000007 16.622581999999966 9.23702800000001 17.15157499999998 9.790437999999995 17.680570999999986 10.343848000000008 17.945066999999995 11.19836699999999 17.945066999999995 12.354020999999989L17.945066999999995 16.96846400000001Z"/>
    </g>
  </g>
</svg>