<svg width="18px" height="18px" version="1.1" xmlns="http://www.w3.org/2000/svg" xmlns:xlink="http://www.w3.org/1999/xlink">
    <g stroke="none" stroke-width="1" fill="none" fill-rule="evenodd">
        <g transform="translate(-425.000000, -101.000000)" fill="#C6002A">
            <g transform="translate(425.000000, 101.000000)">
                <path d="M17.1121753,5.09744933 C15.6585342,2.08130145 12.5723241,0 9,0 C4.02943725,0 0,4.02943725 0,9 C0,13.9705627 4.02943725,18 9,18 C11.3555582,18 13.4997558,17.0950576 15.1039031,15.6138623 L14.4564606,14.8504291 C13.0272583,16.183965 11.1089268,17 9,17 C4.581722,17 1,13.418278 1,9 C1,4.581722 4.581722,1 9,1 C12.1818376,1 14.9298199,2.85755563 16.2186643,5.54738439 L17.1121753,5.09744933 Z"></path>
            </g>
        </g>
    </g>
</svg>